<mxfile host="app.diagrams.net" modified="2021-10-26T05:16:09.320Z" agent="5.0 (Windows)" etag="SX-Mucm2UzaH7r29Wt-R" version="15.5.9" type="github" pages="2">
  <diagram id="C5RBs43oDa-KdzZeNtuy" name="Page-1">
    <mxGraphModel dx="415" dy="214" grid="1" gridSize="10" guides="1" tooltips="1" connect="1" arrows="1" fold="1" page="1" pageScale="1" pageWidth="827" pageHeight="1169" math="0" shadow="0">
      <root>
        <mxCell id="WIyWlLk6GJQsqaUBKTNV-0" />
        <mxCell id="WIyWlLk6GJQsqaUBKTNV-1" parent="WIyWlLk6GJQsqaUBKTNV-0" />
        <mxCell id="mxwzStMm8z_m2-NMggJq-0" value="&lt;p&gt;&lt;b&gt;Mulai Program&lt;/b&gt;&lt;br&gt;&lt;/p&gt;" style="ellipse;whiteSpace=wrap;html=1;horizontal=1;" vertex="1" parent="WIyWlLk6GJQsqaUBKTNV-1">
          <mxGeometry x="110" y="40" width="100" height="40" as="geometry" />
        </mxCell>
        <mxCell id="mxwzStMm8z_m2-NMggJq-1" value="" style="endArrow=classic;html=1;rounded=0;" edge="1" parent="WIyWlLk6GJQsqaUBKTNV-1" source="mxwzStMm8z_m2-NMggJq-0">
          <mxGeometry width="50" height="50" relative="1" as="geometry">
            <mxPoint x="230" y="150" as="sourcePoint" />
            <mxPoint x="160" y="120" as="targetPoint" />
          </mxGeometry>
        </mxCell>
      </root>
    </mxGraphModel>
  </diagram>
  <diagram id="rpxvpuHKOF8IWQiQ8vbr" name="Page-2">
    <mxGraphModel dx="1038" dy="536" grid="1" gridSize="10" guides="1" tooltips="1" connect="1" arrows="1" fold="1" page="1" pageScale="1" pageWidth="827" pageHeight="1169" math="0" shadow="0">
      <root>
        <mxCell id="pxxBv1qyiq4mQwiUUKSP-0" />
        <mxCell id="pxxBv1qyiq4mQwiUUKSP-1" parent="pxxBv1qyiq4mQwiUUKSP-0" />
      </root>
    </mxGraphModel>
  </diagram>
</mxfile>
